<svg width="291" height="37" viewBox="0 0 291 37" fill="none" xmlns="http://www.w3.org/2000/svg">
<path d="M13.168 36.336C10.704 36.336 8.496 35.936 6.544 35.136C4.592 34.336 3.024 33.152 1.84 31.584C0.688 30.016 0.0800002 28.128 0.0160002 25.92H8.752C8.88 27.168 9.312 28.128 10.048 28.8C10.784 29.44 11.744 29.76 12.928 29.76C14.144 29.76 15.104 29.488 15.808 28.944C16.512 28.368 16.864 27.584 16.864 26.592C16.864 25.76 16.576 25.072 16 24.528C15.456 23.984 14.768 23.536 13.936 23.184C13.136 22.832 11.984 22.432 10.48 21.984C8.304 21.312 6.528 20.64 5.152 19.968C3.776 19.296 2.592 18.304 1.6 16.992C0.608 15.68 0.112 13.968 0.112 11.856C0.112 8.72 1.248 6.272 3.52 4.512C5.792 2.72 8.752 1.824 12.4 1.824C16.112 1.824 19.104 2.72 21.376 4.512C23.648 6.272 24.864 8.736 25.024 11.904H16.144C16.08 10.816 15.68 9.968 14.944 9.36C14.208 8.72 13.264 8.4 12.112 8.4C11.12 8.4 10.32 8.672 9.712 9.216C9.104 9.728 8.8 10.48 8.8 11.472C8.8 12.56 9.312 13.408 10.336 14.016C11.36 14.624 12.96 15.28 15.136 15.984C17.312 16.72 19.072 17.424 20.416 18.096C21.792 18.768 22.976 19.744 23.968 21.024C24.96 22.304 25.456 23.952 25.456 25.968C25.456 27.888 24.96 29.632 23.968 31.2C23.008 32.768 21.6 34.016 19.744 34.944C17.888 35.872 15.696 36.336 13.168 36.336ZM51.0513 8.928C54.1233 8.928 56.5873 9.952 58.4433 12C60.2993 14.016 61.2273 16.8 61.2273 20.352V36H53.0673V21.456C53.0673 19.664 52.6033 18.272 51.6753 17.28C50.7473 16.288 49.4993 15.792 47.9313 15.792C46.3633 15.792 45.1153 16.288 44.1873 17.28C43.2593 18.272 42.7953 19.664 42.7953 21.456V36H34.5873V0.48H42.7953V12.816C43.6273 11.632 44.7633 10.688 46.2033 9.984C47.6433 9.28 49.2593 8.928 51.0513 8.928ZM83.203 36.384C80.579 36.384 78.211 35.824 76.099 34.704C74.019 33.584 72.371 31.984 71.155 29.904C69.971 27.824 69.379 25.392 69.379 22.608C69.379 19.856 69.987 17.44 71.203 15.36C72.419 13.248 74.083 11.632 76.195 10.512C78.307 9.392 80.675 8.832 83.299 8.832C85.923 8.832 88.291 9.392 90.403 10.512C92.515 11.632 94.179 13.248 95.395 15.36C96.611 17.44 97.219 19.856 97.219 22.608C97.219 25.36 96.595 27.792 95.347 29.904C94.131 31.984 92.451 33.584 90.307 34.704C88.195 35.824 85.827 36.384 83.203 36.384ZM83.203 29.28C84.771 29.28 86.099 28.704 87.187 27.552C88.307 26.4 88.867 24.752 88.867 22.608C88.867 20.464 88.323 18.816 87.235 17.664C86.179 16.512 84.867 15.936 83.299 15.936C81.699 15.936 80.371 16.512 79.315 17.664C78.259 18.784 77.731 20.432 77.731 22.608C77.731 24.752 78.243 26.4 79.267 27.552C80.323 28.704 81.635 29.28 83.203 29.28ZM144.101 9.216L136.853 36H127.781L123.557 18.624L119.189 36H110.165L102.869 9.216H111.077L114.869 28.368L119.381 9.216H128.069L132.629 28.272L136.373 9.216H144.101ZM159.52 13.68C160.48 12.208 161.68 11.056 163.12 10.224C164.56 9.36 166.16 8.928 167.92 8.928V17.616H165.664C163.616 17.616 162.08 18.064 161.056 18.96C160.032 19.824 159.52 21.36 159.52 23.568V36H151.312V9.216H159.52V13.68ZM188.115 36.384C185.491 36.384 183.123 35.824 181.011 34.704C178.931 33.584 177.283 31.984 176.067 29.904C174.883 27.824 174.291 25.392 174.291 22.608C174.291 19.856 174.899 17.44 176.115 15.36C177.331 13.248 178.995 11.632 181.107 10.512C183.219 9.392 185.587 8.832 188.211 8.832C190.835 8.832 193.203 9.392 195.315 10.512C197.427 11.632 199.091 13.248 200.307 15.36C201.523 17.44 202.131 19.856 202.131 22.608C202.131 25.36 201.507 27.792 200.259 29.904C199.043 31.984 197.363 33.584 195.219 34.704C193.107 35.824 190.739 36.384 188.115 36.384ZM188.115 29.28C189.683 29.28 191.011 28.704 192.099 27.552C193.219 26.4 193.779 24.752 193.779 22.608C193.779 20.464 193.235 18.816 192.147 17.664C191.091 16.512 189.779 15.936 188.211 15.936C186.611 15.936 185.283 16.512 184.227 17.664C183.171 18.784 182.643 20.432 182.643 22.608C182.643 24.752 183.155 26.4 184.179 27.552C185.235 28.704 186.547 29.28 188.115 29.28ZM222.757 36.384C220.133 36.384 217.765 35.824 215.653 34.704C213.573 33.584 211.925 31.984 210.709 29.904C209.525 27.824 208.933 25.392 208.933 22.608C208.933 19.856 209.541 17.44 210.757 15.36C211.973 13.248 213.637 11.632 215.749 10.512C217.861 9.392 220.229 8.832 222.853 8.832C225.477 8.832 227.845 9.392 229.957 10.512C232.069 11.632 233.733 13.248 234.949 15.36C236.165 17.44 236.773 19.856 236.773 22.608C236.773 25.36 236.149 27.792 234.901 29.904C233.685 31.984 232.005 33.584 229.861 34.704C227.749 35.824 225.381 36.384 222.757 36.384ZM222.757 29.28C224.325 29.28 225.653 28.704 226.741 27.552C227.861 26.4 228.421 24.752 228.421 22.608C228.421 20.464 227.877 18.816 226.789 17.664C225.733 16.512 224.421 15.936 222.853 15.936C221.253 15.936 219.925 16.512 218.869 17.664C217.813 18.784 217.285 20.432 217.285 22.608C217.285 24.752 217.797 26.4 218.821 27.552C219.877 28.704 221.189 29.28 222.757 29.28ZM279.384 8.928C282.712 8.928 285.352 9.936 287.304 11.952C289.288 13.968 290.28 16.768 290.28 20.352V36H282.12V21.456C282.12 19.728 281.656 18.4 280.728 17.472C279.832 16.512 278.584 16.032 276.984 16.032C275.384 16.032 274.12 16.512 273.192 17.472C272.296 18.4 271.848 19.728 271.848 21.456V36H263.688V21.456C263.688 19.728 263.224 18.4 262.296 17.472C261.4 16.512 260.152 16.032 258.552 16.032C256.952 16.032 255.688 16.512 254.76 17.472C253.864 18.4 253.416 19.728 253.416 21.456V36H245.208V9.216H253.416V12.576C254.248 11.456 255.336 10.576 256.68 9.936C258.024 9.264 259.544 8.928 261.24 8.928C263.256 8.928 265.048 9.36 266.616 10.224C268.216 11.088 269.464 12.32 270.36 13.92C271.288 12.448 272.552 11.248 274.152 10.32C275.752 9.392 277.496 8.928 279.384 8.928Z" fill="black"/>
</svg>
